<svg xmlns="http://www.w3.org/2000/svg" xmlns:xlink="http://www.w3.org/1999/xlink" version="1.1" x="0px" y="0px" viewBox="0 0 100 125" enable-background="new 0 0 100 100" xml:space="preserve"><g><path d="M38.425,29.784c-0.734,0.63-1.429,1.341-1.942,2.229c-0.516,0.885-0.835,1.946-0.833,3.196c0,0.387,0.313,0.7,0.7,0.7   s0.7-0.313,0.7-0.7c0.006-1.356,0.427-2.303,1.099-3.158c1.005-1.282,2.65-2.267,4.125-3.521c0.735-0.631,1.43-1.342,1.943-2.229   c0.516-0.885,0.835-1.946,0.833-3.196c0.006-1.67-0.573-2.993-1.401-4.028c-1.245-1.556-2.975-2.558-4.313-3.715   c-0.671-0.574-1.242-1.176-1.643-1.867C37.295,12.802,37.052,12.02,37.05,11c0-0.387-0.313-0.7-0.7-0.7s-0.7,0.313-0.7,0.7   c-0.006,1.669,0.573,2.992,1.401,4.028c1.245,1.555,2.975,2.557,4.312,3.714c0.672,0.574,1.243,1.176,1.644,1.867   c0.398,0.693,0.642,1.476,0.644,2.495c-0.006,1.356-0.427,2.303-1.099,3.159C41.546,27.545,39.9,28.529,38.425,29.784z"/><path d="M49.425,29.784c-0.734,0.63-1.429,1.341-1.942,2.229c-0.516,0.885-0.835,1.946-0.833,3.196c0,0.387,0.313,0.7,0.7,0.7   s0.7-0.313,0.7-0.7c0.006-1.356,0.427-2.303,1.099-3.158c1.005-1.282,2.65-2.267,4.125-3.521c0.735-0.631,1.43-1.342,1.943-2.229   c0.516-0.885,0.835-1.946,0.833-3.196c0.006-1.67-0.573-2.993-1.401-4.028c-1.245-1.556-2.975-2.558-4.313-3.715   c-0.671-0.574-1.242-1.176-1.643-1.867C48.295,12.802,48.052,12.02,48.05,11c0-0.387-0.313-0.7-0.7-0.7s-0.7,0.313-0.7,0.7   c-0.006,1.669,0.573,2.992,1.401,4.028c1.245,1.555,2.975,2.557,4.312,3.714c0.672,0.574,1.243,1.176,1.644,1.867   c0.398,0.693,0.642,1.476,0.644,2.495c-0.006,1.356-0.427,2.303-1.099,3.159C52.546,27.545,50.9,28.529,49.425,29.784z"/><path d="M85.573,51.254c-2.541-1.955-6.396-3.15-11.815-3.23c0.192-3.881,0.291-6.998,0.291-7.002   c0.006-0.189-0.064-0.372-0.196-0.509c-0.132-0.136-0.313-0.213-0.503-0.213h-62c-0.192,0-0.377,0.079-0.509,0.22   c-0.132,0.139-0.201,0.328-0.19,0.52c0,0.003,0.224,3.946,0.564,8.49c0.342,4.551,0.795,9.67,1.279,12.135   c2.396,12.127,8.002,22.575,16.936,27.937c0.107,0.064,0.233,0.1,0.359,0.1h25.514c0.126,0,0.252-0.035,0.359-0.1   c4.508-2.706,8.165-6.709,10.994-11.567c2.56-0.927,7.364-2.805,11.877-5.349c2.33-1.315,4.582-2.806,6.41-4.452   c1.825-1.648,3.245-3.456,3.84-5.455c0.367-1.244,0.567-2.505,0.567-3.746C89.359,56.107,88.206,53.274,85.573,51.254z    M13.349,57.7h13.139v11.907H16.106c-0.925-2.604-1.676-5.354-2.239-8.214C13.693,60.514,13.518,59.217,13.349,57.7z M55.097,88.3   H29.995c-5.971-3.631-10.441-9.776-13.362-17.292h10.555c0.185,0,0.364-0.075,0.495-0.205c0.13-0.131,0.205-0.311,0.205-0.495V57   c0-0.185-0.075-0.365-0.205-0.495c-0.131-0.13-0.311-0.205-0.495-0.205H13.2c-0.217-2.153-0.419-4.593-0.59-6.875   c-0.17-2.265-0.311-4.382-0.408-5.932c-0.048-0.747-0.085-1.356-0.11-1.793h60.533c-0.015,0.438-0.037,1.054-0.067,1.81   c-0.092,2.324-0.252,5.924-0.477,9.384c-0.224,3.454-0.519,6.791-0.857,8.5C68.896,73.206,63.458,83.214,55.097,88.3z    M87.44,62.381c-0.475,1.622-1.716,3.266-3.434,4.811c-2.573,2.322-6.18,4.41-9.595,6.066c-2.504,1.215-4.899,2.198-6.727,2.897   c2.24-4.335,3.877-9.255,4.911-14.49c0.246-1.248,0.452-3.135,0.633-5.296c0.183-2.188,0.335-4.646,0.457-6.947   c5.254,0.069,8.818,1.231,11.031,2.94c2.278,1.767,3.224,4.095,3.232,6.669C87.951,60.121,87.773,61.251,87.44,62.381z"/></g></svg>